<svg xmlns="http://www.w3.org/2000/svg" version="1.1" xmlns:xlink="http://www.w3.org/1999/xlink" xmlns:svgjs="http://svgjs.dev/svgjs" width="1500" height="1500" viewBox="0 0 1500 1500"><g transform="matrix(1,0,0,1,-0.323615160350073,-0.3236151603499593)"><svg viewBox="0 0 343 343" data-background-color="#110f10" preserveAspectRatio="xMidYMid meet" height="1500" width="1500" xmlns="http://www.w3.org/2000/svg" xmlns:xlink="http://www.w3.org/1999/xlink"><g id="tight-bounds" transform="matrix(1,0,0,1,0.0740000000000407,0.07400000000001228)"><svg viewBox="0 0 342.85155851775386 342.85155851775386" height="342.85155851775386" width="342.85155851775386"><g><svg></svg></g><g><svg viewBox="0 0 342.85155851775386 342.85155851775386" height="342.85155851775386" width="342.85155851775386"><g><path d="M0 171.426c0-94.676 76.75-171.426 171.426-171.426 94.676 0 171.426 76.75 171.426 171.426 0 94.676-76.75 171.426-171.426 171.426-94.676 0-171.426-76.75-171.426-171.426zM171.426 339.373c92.755 0 167.947-75.192 167.947-167.947 0-92.755-75.192-167.947-167.947-167.947-92.755 0-167.947 75.192-167.947 167.947 0 92.755 75.192 167.947 167.947 167.947z" data-fill-palette-color="tertiary" fill="#cef196" stroke="transparent"></path><ellipse rx="164.56874808852186" ry="164.56874808852186" cx="171.42577925887693" cy="171.42577925887693" fill="#cef196" stroke="transparent" stroke-width="0" fill-opacity="1" data-fill-palette-color="tertiary"></ellipse></g><g transform="matrix(1,0,0,1,64.84655864529837,81.68703017620257)"><svg viewBox="0 0 213.1584412271571 179.47749816534872" height="179.47749816534872" width="213.1584412271571"><g><svg viewBox="0 0 213.1584412271571 179.47749816534872" height="179.47749816534872" width="213.1584412271571"><g><svg viewBox="0 0 213.1584412271571 179.47749816534872" height="179.47749816534872" width="213.1584412271571"><g transform="matrix(1,0,0,1,0,107.95337297211432)"><svg viewBox="0 0 213.1584412271571 71.52412519323438" height="71.52412519323438" width="213.1584412271571"><g id="textblocktransform"><svg viewBox="0 0 213.1584412271571 71.52412519323438" height="71.52412519323438" width="213.1584412271571" id="textblock"><g><svg viewBox="0 0 213.1584412271571 38.576695450043246" height="38.576695450043246" width="213.1584412271571"><g transform="matrix(1,0,0,1,0,0)"><svg width="213.1584412271571" viewBox="2.1 -38.5 216.03 39.1" height="38.576695450043246" data-palette-color="#110f10"><path d="M2.1-16.05L2.1-16.05Q2.1-25.95 6.13-30.78 10.15-35.6 17.5-35.6L17.5-35.6Q19.75-35.6 21.23-35.3 22.7-35 23.95-35L23.95-35Q24.8-35 25.65-35.15 26.5-35.3 27.45-35.55L27.45-35.55 28-22.85 22.4-22.2Q22.45-22.95 22.48-23.63 22.5-24.3 22.5-24.9L22.5-24.9Q22.5-28 21.4-29.7 20.3-31.4 17.45-31.4L17.45-31.4Q8.65-31.4 8.65-17.35L8.65-17.35Q8.65-14 9.22-11.65 9.8-9.3 10.95-7.83 12.1-6.35 13.83-5.68 15.55-5 17.8-5L17.8-5Q20.25-5 22.65-5.73 25.05-6.45 27.3-7.3L27.3-7.3 27.3-2Q25.05-0.55 22.05 0.03 19.05 0.6 16.25 0.6L16.25 0.6Q13.45 0.6 10.88-0.03 8.3-0.65 6.35-2.48 4.4-4.3 3.25-7.55 2.1-10.8 2.1-16.05ZM38.4 0.6L38.4 0.6Q35.25 0.6 33.32-1.55 31.4-3.7 31.4-7.15L31.4-7.15Q31.4-10.75 33.5-12.9 35.6-15.05 39.1-15.05L39.1-15.05Q40.55-15.05 42-14.65 43.45-14.25 44.6-13.5L44.6-13.5 44.6-16.3Q44.6-18.65 43.7-19.6 42.8-20.55 40.6-20.55L40.6-20.55Q39.1-20.55 37.42-20.18 35.75-19.8 34.75-19.25L34.75-19.25 33.2-24.05Q33.95-24.35 35-24.65 36.05-24.95 37.25-25.15 38.45-25.35 39.7-25.48 40.95-25.6 42-25.6L42-25.6Q50.8-25.6 50.8-17L50.8-17Q50.8-16.25 50.72-14.8 50.65-13.35 50.57-11.78 50.5-10.2 50.42-8.85 50.35-7.5 50.35-6.95L50.35-6.95Q50.35-5.8 50.7-5.3 51.05-4.8 52-4.8L52-4.8Q52.65-4.8 53.5-5L53.5-5 52.7-0.2Q51.9 0.05 51.22 0.2 50.55 0.35 49.85 0.35L49.85 0.35Q48 0.35 46.75-0.68 45.5-1.7 45.25-3.6L45.25-3.6Q44.25-1.65 42.45-0.53 40.65 0.6 38.4 0.6ZM40.8-4L40.8-4Q42.4-4 43.52-5.15 44.65-6.3 44.65-8.05L44.65-8.05Q44.65-9.55 43.75-10.45 42.85-11.35 41.25-11.35L41.25-11.35Q39.6-11.35 38.65-10.35 37.7-9.35 37.7-7.6L37.7-7.6Q37.7-5.95 38.52-4.98 39.35-4 40.8-4ZM55.3-21.85L61.15-25.9Q62.2-24.25 62.8-23.03 63.4-21.8 63.65-20.45L63.65-20.45Q64.15-21.2 64.9-22.08 65.65-22.95 66.59-23.73 67.55-24.5 68.7-25.1 69.84-25.7 71.15-25.9L71.15-25.9 71.59-18.8Q69.15-18.8 67.05-18.38 64.95-17.95 64.05-16.95L64.05-16.95Q64.09-16 64.09-14.88 64.09-13.75 64.09-12.35L64.09-12.35Q64.09-10.75 64.15-8.93 64.2-7.1 64.27-5.43 64.34-3.75 64.45-2.3 64.55-0.85 64.65 0L64.65 0 57.6 0Q57.65-1.05 57.7-2.45 57.75-3.85 57.8-5.35 57.85-6.85 57.87-8.43 57.9-10 57.9-11.45L57.9-11.45Q57.9-13.75 57.8-15.23 57.7-16.7 57.4-17.78 57.1-18.85 56.6-19.75 56.1-20.65 55.3-21.85L55.3-21.85ZM93.09-11.3L80.39-11.3Q80.64-7.5 81.94-5.98 83.24-4.45 85.89-4.45L85.89-4.45Q87.89-4.45 89.67-5.05 91.44-5.65 92.59-6.15L92.59-6.15 92.59-2Q90.99-0.55 88.59 0.03 86.19 0.6 83.94 0.6L83.94 0.6Q82.09 0.6 80.29 0.15 78.49-0.3 77.07-1.58 75.64-2.85 74.77-5.13 73.89-7.4 73.89-11.1L73.89-11.1Q73.89-14.75 74.79-17.48 75.69-20.2 77.27-22 78.84-23.8 80.97-24.7 83.09-25.6 85.59-25.6L85.59-25.6Q88.14-25.6 89.77-24.73 91.39-23.85 92.32-22.5 93.24-21.15 93.57-19.5 93.89-17.85 93.89-16.3L93.89-16.3Q93.89-14.7 93.67-13.4 93.44-12.1 93.09-11.3L93.09-11.3ZM84.69-21.95L84.69-21.95Q82.74-21.95 81.67-20.28 80.59-18.6 80.39-15L80.39-15 88.64-15Q88.64-15.2 88.67-15.5 88.69-15.8 88.69-16.05L88.69-16.05Q88.69-16.85 88.54-17.88 88.39-18.9 87.94-19.8 87.49-20.7 86.72-21.33 85.94-21.95 84.69-21.95ZM116.39-11.3L103.69-11.3Q103.94-7.5 105.24-5.98 106.54-4.45 109.19-4.45L109.19-4.45Q111.19-4.45 112.97-5.05 114.74-5.65 115.89-6.15L115.89-6.15 115.89-2Q114.29-0.55 111.89 0.03 109.49 0.6 107.24 0.6L107.24 0.6Q105.39 0.6 103.59 0.15 101.79-0.3 100.37-1.58 98.94-2.85 98.07-5.13 97.19-7.4 97.19-11.1L97.19-11.1Q97.19-14.75 98.09-17.48 98.99-20.2 100.57-22 102.14-23.8 104.27-24.7 106.39-25.6 108.89-25.6L108.89-25.6Q111.44-25.6 113.07-24.73 114.69-23.85 115.62-22.5 116.54-21.15 116.87-19.5 117.19-17.85 117.19-16.3L117.19-16.3Q117.19-14.7 116.97-13.4 116.74-12.1 116.39-11.3L116.39-11.3ZM107.99-21.95L107.99-21.95Q106.04-21.95 104.97-20.28 103.89-18.6 103.69-15L103.69-15 111.94-15Q111.94-15.2 111.97-15.5 111.99-15.8 111.99-16.05L111.99-16.05Q111.99-16.85 111.84-17.88 111.69-18.9 111.24-19.8 110.79-20.7 110.02-21.33 109.24-21.95 107.99-21.95ZM119.79-21.85L125.64-25.9Q126.69-24.25 127.29-23.03 127.89-21.8 128.14-20.45L128.14-20.45Q128.64-21.2 129.39-22.08 130.14-22.95 131.09-23.73 132.04-24.5 133.19-25.1 134.34-25.7 135.64-25.9L135.64-25.9 136.09-18.8Q133.64-18.8 131.54-18.38 129.44-17.95 128.54-16.95L128.54-16.95Q128.59-16 128.59-14.88 128.59-13.75 128.59-12.35L128.59-12.35Q128.59-10.75 128.64-8.93 128.69-7.1 128.76-5.43 128.84-3.75 128.94-2.3 129.04-0.85 129.14 0L129.14 0 122.09 0Q122.14-1.05 122.19-2.45 122.24-3.85 122.29-5.35 122.34-6.85 122.36-8.43 122.39-10 122.39-11.45L122.39-11.45Q122.39-13.75 122.29-15.23 122.19-16.7 121.89-17.78 121.59-18.85 121.09-19.75 120.59-20.65 119.79-21.85L119.79-21.85ZM140.59-34.5L140.59-34.5Q141.64-34.7 142.89-34.9 144.14-35.1 145.46-35.25 146.79-35.4 148.14-35.48 149.49-35.55 150.74-35.55L150.74-35.55Q154.49-35.55 156.94-34.77 159.39-34 160.81-32.77 162.24-31.55 162.79-30.03 163.34-28.5 163.34-27L163.34-27Q163.34-25.65 162.94-24.3 162.54-22.95 161.69-21.8 160.84-20.65 159.49-19.83 158.14-19 156.29-18.7L156.29-18.7Q158.59-18.5 160.26-17.7 161.94-16.9 163.04-15.7 164.14-14.5 164.64-13 165.14-11.5 165.14-9.85L165.14-9.85Q165.14-7.85 164.36-5.98 163.59-4.1 161.74-2.65 159.89-1.2 156.81-0.33 153.74 0.55 149.19 0.55L149.19 0.55Q148.29 0.55 147.16 0.53 146.04 0.5 144.86 0.43 143.69 0.35 142.54 0.25 141.39 0.15 140.44 0L140.44 0Q140.54-2.4 140.61-4.2 140.69-6 140.74-8.03 140.79-10.05 140.81-12.63 140.84-15.2 140.84-19.2L140.84-19.2Q140.84-22.8 140.79-26.63 140.74-30.45 140.59-34.5ZM147.34-16.05L147.34-16.05Q147.34-12.45 147.34-9.58 147.34-6.7 147.39-4.15L147.39-4.15Q148.34-3.85 149.31-3.68 150.29-3.5 151.29-3.5L151.29-3.5Q154.44-3.5 156.41-5.35 158.39-7.2 158.39-10.55L158.39-10.55Q158.39-11.85 158.01-12.95 157.64-14.05 156.81-14.85 155.99-15.65 154.69-16.1 153.39-16.55 151.49-16.55L151.49-16.55Q149.54-16.55 147.34-16.05ZM147.44-30.5L147.44-30.5Q147.34-28.45 147.34-25.98 147.34-23.5 147.34-20.2L147.34-20.2Q148.09-20.1 148.76-20.05 149.44-20 150.09-20L150.09-20Q153.79-20 155.44-21.55 157.09-23.1 157.09-25.7L157.09-25.7Q157.09-26.75 156.81-27.73 156.54-28.7 155.89-29.45 155.24-30.2 154.16-30.65 153.09-31.1 151.44-31.1L151.44-31.1Q150.44-31.1 149.46-30.93 148.49-30.75 147.44-30.5ZM192.43-3.45L186.58 0.6Q185.58-0.85 184.98-1.9 184.38-2.95 184.08-4.1L184.08-4.1Q183.33-3.25 182.48-2.43 181.63-1.6 180.61-0.93 179.58-0.25 178.43 0.18 177.28 0.6 175.93 0.6L175.93 0.6Q174.68 0.6 173.51 0.15 172.33-0.3 171.43-1.35 170.53-2.4 169.98-4.2 169.43-6 169.43-8.7L169.43-8.7Q169.43-9.35 169.46-10.73 169.48-12.1 169.53-13.63 169.58-15.15 169.61-16.55 169.63-17.95 169.63-18.7L169.63-18.7Q169.63-20.35 169.41-21.88 169.18-23.4 168.63-24.4L168.63-24.4 175.48-25.6Q175.83-24.45 175.91-23.1 175.98-21.75 175.98-20.75L175.98-20.75Q175.98-19.3 175.91-17.85 175.83-16.4 175.76-15.03 175.68-13.65 175.61-12.43 175.53-11.2 175.53-10.3L175.53-10.3Q175.53-7.35 176.53-6.25 177.53-5.15 179.28-5.15L179.28-5.15Q180.73-5.15 181.78-5.65 182.83-6.15 183.68-6.85L183.68-6.85Q183.63-7.75 183.63-8.88 183.63-10 183.63-11.45L183.63-11.45Q183.63-13.75 183.63-15.6 183.63-17.45 183.61-19.05 183.58-20.65 183.56-22.08 183.53-23.5 183.48-25L183.48-25 190.23-25Q190.18-23.8 190.13-22.3 190.08-20.8 190.01-19.13 189.93-17.45 189.88-15.68 189.83-13.9 189.83-12.25L189.83-12.25Q189.83-10.3 189.93-9.08 190.03-7.85 190.33-6.93 190.63-6 191.13-5.23 191.63-4.45 192.43-3.45L192.43-3.45ZM218.13-3.45L213.78 0.6Q212.38-0.7 211.53-1.68 210.68-2.65 210.23-3.65L210.23-3.65Q209.48-2.9 208.63-2.15 207.78-1.4 206.78-0.78 205.78-0.15 204.68 0.23 203.58 0.6 202.33 0.6L202.33 0.6Q200.98 0.6 199.68 0.15 198.38-0.3 197.38-1.5 196.38-2.7 195.76-4.75 195.13-6.8 195.13-10L195.13-10Q195.13-13.9 195.96-16.82 196.78-19.75 198.28-21.7 199.78-23.65 201.86-24.63 203.93-25.6 206.43-25.6L206.43-25.6Q207.98-25.6 209.33-24.85L209.33-24.85Q209.28-28.9 209.26-32 209.23-35.1 209.13-37.95L209.13-37.95 215.93-38.5Q215.63-32.4 215.58-25.68 215.53-18.95 215.53-12.25L215.53-12.25Q215.53-10.3 215.63-9.08 215.73-7.85 216.03-6.93 216.33-6 216.83-5.23 217.33-4.45 218.13-3.45L218.13-3.45ZM205.83-5.15L205.83-5.15Q206.93-5.15 207.83-5.53 208.73-5.9 209.48-6.5L209.48-6.5Q209.38-7.45 209.36-8.65 209.33-9.85 209.33-11.45L209.33-11.45 209.33-20.65Q208.18-22.1 206.23-22.1L206.23-22.1Q204.03-22.1 202.86-19.45 201.68-16.8 201.68-11.6L201.68-11.6Q201.68-9.55 201.98-8.3 202.28-7.05 202.83-6.35 203.38-5.65 204.13-5.4 204.88-5.15 205.83-5.15Z" opacity="1" transform="matrix(1,0,0,1,0,0)" fill="#110f10" class="wordmark-text-0" data-fill-palette-color="quaternary" id="text-0"></path></svg></g></svg></g><g transform="matrix(1,0,0,1,0,47.68372740510765)"><svg viewBox="0 0 213.1584412271571 23.84039778812673" height="23.84039778812673" width="213.1584412271571"><g transform="matrix(1,0,0,1,0,0)"><svg width="213.1584412271571" viewBox="3.25 -35.45 396.09 44.300000000000004" height="23.84039778812673" data-palette-color="#110f10"><path d="M3.25-15.6L3.25-15.6Q3.25-20.7 3.78-23.93 4.3-27.15 5.65-28.9 7-30.65 9.47-31.33 11.95-32 15.9-32L15.9-32Q19.8-32 22.3-31.33 24.8-30.65 26.15-28.88 27.5-27.1 28.03-23.9 28.55-20.7 28.55-15.6L28.55-15.6Q28.55-10.5 28.03-7.3 27.5-4.1 26.15-2.35 24.8-0.6 22.3 0.08 19.8 0.75 15.9 0.75L15.9 0.75Q11.95 0.75 9.47 0.08 7-0.6 5.65-2.35 4.3-4.1 3.78-7.3 3.25-10.5 3.25-15.6ZM8.6-24.1L8.6-3.5 18.9-3.5Q21.3-3.5 22.25-4.3 23.2-5.1 23.2-7.15L23.2-7.15 23.2-27.75 12.85-27.75Q10.45-27.75 9.53-26.95 8.6-26.15 8.6-24.1L8.6-24.1ZM42.76 0L37.76 0 37.76-25 40.06-25 41.41-22.5Q43.31-24.05 45.56-24.78 47.81-25.5 50.71-25.5L50.71-25.5Q54.21-25.5 56.01-24.43 57.81-23.35 57.81-21.25L57.81-21.25 57.81 0 52.81 0 52.81-21.4 47.01-21.4Q44.56-21.4 43.66-20.8 42.76-20.2 42.76-18.5L42.76-18.5 42.76 0ZM76.21 0.5L76.21 0.5Q73.36 0.5 71.46-0.1 69.56-0.7 68.49-2.15 67.41-3.6 66.96-6.13 66.51-8.65 66.51-12.5L66.51-12.5Q66.51-17.45 67.46-20.3 68.41-23.15 70.74-24.33 73.06-25.5 77.06-25.5L77.06-25.5Q81.01-25.5 83.19-24.85 85.36-24.2 86.21-22.58 87.06-20.95 87.06-18L87.06-18Q87.06-15.4 86.54-13.83 86.01-12.25 84.44-11.43 82.86-10.6 79.84-10.33 76.81-10.05 71.76-10.05L71.76-10.05 70.26-10.05 70.26-13.3 78.36-13.3Q80.81-13.3 81.69-13.9 82.56-14.5 82.56-16.2L82.56-16.2 82.56-21.4 75.91-21.4Q73.51-21.4 72.64-20.8 71.76-20.2 71.76-18.5L71.76-18.5 71.76-4Q72.86-3.7 74.11-3.58 75.36-3.45 77.11-3.45L77.11-3.45Q79.11-3.45 81.06-3.73 83.01-4 85.76-4.65L85.76-4.65 86.41-1Q84.56-0.3 81.84 0.1 79.11 0.5 76.21 0.5ZM108.77-18.3L108.77-18.3Q108.77-22.15 111.07-23.95 113.37-25.75 118.22-25.75L118.22-25.75Q120.47-25.75 122.5-25.48 124.52-25.2 126.52-24.65L126.52-24.65 125.82-21Q124.57-21.35 122.9-21.58 121.22-21.8 119.72-21.8L119.72-21.8Q118.12-21.8 116.65-21.68 115.17-21.55 114.02-21.35L114.02-21.35 114.02-15.45Q118.37-14.85 121.07-14.23 123.77-13.6 125.22-12.7 126.67-11.8 127.22-10.45 127.77-9.1 127.77-7.05L127.77-7.05Q127.77-4.25 126.75-2.53 125.72-0.8 123.42-0.03 121.12 0.75 117.27 0.75L117.27 0.75Q115.07 0.75 112.82 0.38 110.57 0 108.22-0.7L108.22-0.7 109.02-4.7Q112.87-3.2 117.22-3.2L117.22-3.2Q118.72-3.2 119.85-3.35 120.97-3.5 122.52-3.9L122.52-3.9 122.52-9.8Q117.92-10.45 115.17-11.05 112.42-11.65 111.05-12.53 109.67-13.4 109.22-14.78 108.77-16.15 108.77-18.3ZM141.18 0.5L141.18 0.5Q139.33 0.5 138.4-0.43 137.48-1.35 137.48-3.25L137.48-3.25 137.48-30.35 142.48-31.6 142.48-3.7Q143.18-3.65 143.98-3.58 144.78-3.5 146.03-3.45L146.03-3.45 145.73-0.05Q144.18 0.25 143.08 0.38 141.98 0.5 141.18 0.5ZM146.93-21.55L133.98-21.55 133.98-25 146.93-25 146.93-21.55ZM164.48 0.5L164.48 0.5Q161.23 0.5 159.11-0.08 156.98-0.65 155.78-2.08 154.58-3.5 154.11-6.05 153.63-8.6 153.63-12.5L153.63-12.5Q153.63-16.4 154.11-18.95 154.58-21.5 155.78-22.93 156.98-24.35 159.11-24.93 161.23-25.5 164.48-25.5L164.48-25.5Q167.78-25.5 169.91-24.93 172.03-24.35 173.21-22.93 174.38-21.5 174.86-18.98 175.33-16.45 175.33-12.5L175.33-12.5Q175.33-8.6 174.86-6.05 174.38-3.5 173.18-2.08 171.98-0.65 169.86-0.08 167.73 0.5 164.48 0.5ZM158.83-20.15L158.83-3.6 167.73-3.6Q169.18-3.6 169.66-3.85 170.13-4.1 170.13-4.85L170.13-4.85 170.13-21.4 161.23-21.4Q159.83-21.4 159.33-21.15 158.83-20.9 158.83-20.15L158.83-20.15ZM196.24 0.75L196.24 0.75Q193.04 0.75 191.01 0.23 188.99-0.3 187.91-1.7 186.84-3.1 186.44-5.7 186.04-8.3 186.04-12.5L186.04-12.5Q186.04-16.65 186.44-19.2 186.84-21.75 187.91-23.13 188.99-24.5 191.01-25 193.04-25.5 196.24-25.5L196.24-25.5Q198.99-25.5 200.74-24.93 202.49-24.35 203.46-22.93 204.44-21.5 204.84-18.98 205.24-16.45 205.24-12.5L205.24-12.5Q205.24-8.55 204.84-5.95 204.44-3.35 203.44-1.9 202.44-0.45 200.69 0.15 198.94 0.75 196.24 0.75ZM189.29-20.4L189.29-3.35 197.69-3.35Q199.04-3.35 199.51-3.6 199.99-3.85 199.99-4.6L199.99-4.6 199.99-21.4 191.59-21.4Q190.29-21.4 189.79-21.18 189.29-20.95 189.29-20.4L189.29-20.4ZM189.29 8.25L184.29 8.85 184.29-25 186.59-25 189.29-20 189.29 8.25ZM234.65-30.1L234.65 0 229.65 0 229.65-24.7Q229.85-28.2 230.43-30.18 231-32.15 232.28-32.95 233.55-33.75 235.7-33.75L235.7-33.75Q236.85-33.75 238-33.63 239.15-33.5 240.3-33.25L240.3-33.25 240-29.65 234.65-30.1ZM226.15-25L238.65-25 238.65-21.55 226.15-21.55 226.15-25ZM255.61 0.5L255.61 0.5Q252.36 0.5 250.23-0.08 248.11-0.65 246.91-2.08 245.71-3.5 245.23-6.05 244.76-8.6 244.76-12.5L244.76-12.5Q244.76-16.4 245.23-18.95 245.71-21.5 246.91-22.93 248.11-24.35 250.23-24.93 252.36-25.5 255.61-25.5L255.61-25.5Q258.91-25.5 261.03-24.93 263.16-24.35 264.33-22.93 265.51-21.5 265.98-18.98 266.46-16.45 266.46-12.5L266.46-12.5Q266.46-8.6 265.98-6.05 265.51-3.5 264.31-2.08 263.11-0.65 260.98-0.08 258.86 0.5 255.61 0.5ZM249.96-20.15L249.96-3.6 258.86-3.6Q260.31-3.6 260.78-3.85 261.26-4.1 261.26-4.85L261.26-4.85 261.26-21.4 252.36-21.4Q250.96-21.4 250.46-21.15 249.96-20.9 249.96-20.15L249.96-20.15ZM275.41-25L277.76-25 279.51-21.05Q281.76-23.1 283.36-24.18 284.96-25.25 286.36-25.75L286.36-25.75 286.86-20.85Q285.81-20.55 284.61-20.03 283.41-19.5 282.34-18.9 281.26-18.3 280.41-17.65L280.41-17.65 280.41 0 275.41 0 275.41-25ZM306.32 8.75L306.32 8.75Q305.37 8.75 304.32 8.6 303.27 8.45 302.47 8.2L302.47 8.2 302.77 5.3Q304.77 5.3 305.8 5.08 306.82 4.85 307.17 4.2 307.52 3.55 307.52 2.25L307.52 2.25 307.52-24.65 312.52-25.4 312.52 3Q312.52 5.9 311.02 7.33 309.52 8.75 306.32 8.75ZM310.07-29.35L310.07-29.35Q308.22-29.35 307.6-29.98 306.97-30.6 306.97-32.35L306.97-32.35Q306.97-34.15 307.62-34.8 308.27-35.45 310.07-35.45L310.07-35.45Q311.82-35.45 312.45-34.8 313.07-34.15 313.07-32.35L313.07-32.35Q313.07-30.6 312.47-29.98 311.87-29.35 310.07-29.35ZM332.33 0.5L332.33 0.5Q329.08 0.5 326.95-0.08 324.83-0.65 323.63-2.08 322.43-3.5 321.95-6.05 321.48-8.6 321.48-12.5L321.48-12.5Q321.48-16.4 321.95-18.95 322.43-21.5 323.63-22.93 324.83-24.35 326.95-24.93 329.08-25.5 332.33-25.5L332.33-25.5Q335.63-25.5 337.75-24.93 339.88-24.35 341.05-22.93 342.23-21.5 342.7-18.98 343.18-16.45 343.18-12.5L343.18-12.5Q343.18-8.6 342.7-6.05 342.23-3.5 341.03-2.08 339.83-0.65 337.7-0.08 335.58 0.5 332.33 0.5ZM326.68-20.15L326.68-3.6 335.58-3.6Q337.03-3.6 337.5-3.85 337.98-4.1 337.98-4.85L337.98-4.85 337.98-21.4 329.08-21.4Q327.68-21.4 327.18-21.15 326.68-20.9 326.68-20.15L326.68-20.15ZM364.08-25.75L364.08-25.75Q366.78-25.75 368.53-25.18 370.28-24.6 371.28-23.13 372.28-21.65 372.68-19.07 373.08-16.5 373.08-12.5L373.08-12.5Q373.08-8.55 372.66-6.03 372.23-3.5 371.13-2.08 370.03-0.65 368.08-0.08 366.13 0.5 363.08 0.5L363.08 0.5Q360.18 0.5 358.36 0 356.53-0.5 355.56-1.88 354.58-3.25 354.23-5.83 353.88-8.4 353.88-12.5L353.88-12.5Q353.88-16.7 354.28-19.3 354.68-21.9 355.76-23.3 356.83-24.7 358.86-25.23 360.88-25.75 364.08-25.75ZM367.83-4.6L367.83-21.65 359.43-21.65Q358.08-21.65 357.61-21.4 357.13-21.15 357.13-20.4L357.13-20.4 357.13-3.6 365.53-3.6Q366.83-3.6 367.33-3.83 367.83-4.05 367.83-4.6L367.83-4.6ZM352.13-1.05L352.13-33.25 357.13-33.85 357.13-5 357.13-2.6 363.08 0.5Q360.03 0.5 357.53 0.13 355.03-0.25 352.13-1.05L352.13-1.05ZM380.34-18.3L380.34-18.3Q380.34-22.15 382.64-23.95 384.94-25.75 389.79-25.75L389.79-25.75Q392.04-25.75 394.06-25.48 396.09-25.2 398.09-24.65L398.09-24.65 397.39-21Q396.14-21.35 394.46-21.58 392.79-21.8 391.29-21.8L391.29-21.8Q389.69-21.8 388.21-21.68 386.74-21.55 385.59-21.35L385.59-21.35 385.59-15.45Q389.94-14.85 392.64-14.23 395.34-13.6 396.79-12.7 398.24-11.8 398.79-10.45 399.34-9.1 399.34-7.05L399.34-7.05Q399.34-4.25 398.31-2.53 397.29-0.8 394.99-0.03 392.69 0.75 388.84 0.75L388.84 0.75Q386.64 0.75 384.39 0.38 382.14 0 379.79-0.7L379.79-0.7 380.59-4.7Q384.44-3.2 388.79-3.2L388.79-3.2Q390.29-3.2 391.41-3.35 392.54-3.5 394.09-3.9L394.09-3.9 394.09-9.8Q389.49-10.45 386.74-11.05 383.99-11.65 382.61-12.53 381.24-13.4 380.79-14.78 380.34-16.15 380.34-18.3Z" opacity="1" transform="matrix(1,0,0,1,0,0)" fill="#110f10" class="slogan-text-1" data-fill-palette-color="quaternary" id="text-1"></path></svg></g></svg></g></svg></g></svg></g><g transform="matrix(1,0,0,1,60.17406944677325,0)"><svg viewBox="0 0 92.81030233361061 98.84634101704991" height="98.84634101704991" width="92.81030233361061"><g><svg xmlns="http://www.w3.org/2000/svg" xmlns:xlink="http://www.w3.org/1999/xlink" version="1.1" x="0" y="0" viewBox="8.13917499276149 6.895738913603467 82.16082500723851 87.50426108639654" style="enable-background:new 0 0 100 100;" xml:space="preserve" height="98.84634101704991" width="92.81030233361061" class="icon-icon-0" data-fill-palette-color="quaternary" id="icon-0"><g fill="#110f10" data-fill-palette-color="quaternary"><g fill="#110f10" data-fill-palette-color="quaternary"><g fill="#110f10" data-fill-palette-color="quaternary"><path class="" d="M50.1 9.1l0.1-0.2c0.3-0.4 0.9-0.5 1.3-0.2L51.8 9C51.9 9.1 52 9.1 52 9.2 53.2 8.4 54.6 8 56.2 8c4.2 0 7.5 3.4 7.5 7.5 0 3.4-2.2 6.3-5.3 7.2-0.7 0.2-1.4 0.3-2.2 0.3-1.7 0-3.2-0.5-4.4-1.4-1.9-1.4-3.1-3.6-3.1-6.1 0-1.2 0.3-2.4 0.8-3.4 0 0 0 0 0 0l-0.3-0.2c-0.4-0.3-0.5-0.9-0.2-1.3l0.2-0.2c-2.4-0.5-1.7 1.6-1.6 8 0.1 3.8-5.4 6.1-10 2.5 1.5 0.2 4.6 0.5 4.4-2.5-0.1-1.7-2.2-7.9 1.6-10.5C46.9 5.3 49.2 8.5 50.1 9.1z" fill="#110f10" data-fill-palette-color="quaternary"></path><path class="" d="M90.3 75.2v2.6c0 0.5-0.4 0.9-0.9 0.9H65.1c-0.5 0-0.9-0.4-0.9-0.9v-2.6c0-0.5 0.4-0.9 0.9-0.9h24.3C89.9 74.3 90.3 74.7 90.3 75.2z" fill="#110f10" data-fill-palette-color="quaternary"></path><path class="" d="M80.6 38.9V41c0 0.7-0.6 1.3-1.3 1.3H67.4c-0.4 0-0.8-0.2-1-0.5l-5.7-6.3-5 12.9 15.4 5.7c0.5 0.2 0.9 0.7 0.8 1.2 0 0 0 0 0 0.1l-0.6 13.6c0 0.7-0.6 1.3-1.3 1.3h-2.9c-0.7 0-1.3-0.6-1.3-1.3l-0.7-7.5-10.4-3.7-5.6-2-1.1-0.4L42 53.2c-0.2-0.1-0.8-0.4-0.7-1.3l2.8-18.6-7.8 2.3c0 0-0.1 0-0.1 0l-3.6 10.3c-0.2 0.7-0.9 1-1.6 0.8L28 45.4c-0.7-0.2-1-0.9-0.8-1.6l4.6-12.4c0.1-0.4 0.4-0.7 0.8-0.8 0 0 0 0 0 0 0.1-0.1 0.2-0.1 0.3-0.2L46 25.7c1.9-0.7 3.8-1.1 5.3 0.2 0.5 0.5 2.3 2.4 3.9 4 0.4 0.4 1.1 0.2 1.2-0.3 0.4-0.8 0.8-3.1 1.2-3.5 0.6-0.6 2.2-0.7 4 0.8l7.6 9.9c0.1 0.1 0.2 0.2 0.4 0.3l9 0.4C80.1 37.6 80.6 38.2 80.6 38.9z" fill="#110f10" data-fill-palette-color="quaternary"></path><path class="" d="M76.7 83v2.6c0 0.5-0.4 0.9-0.9 0.9H51.5c-0.5 0-0.9-0.4-0.9-0.9V83c0-0.5 0.4-0.9 0.9-0.9h24.3C76.3 82.1 76.7 82.5 76.7 83z" fill="#110f10" data-fill-palette-color="quaternary"></path><path class="" d="M61.5 90.9v2.6c0 0.5-0.4 0.9-0.9 0.9H36.3c-0.5 0-0.9-0.4-0.9-0.9v-2.6c0-0.5 0.4-0.9 0.9-0.9h24.3C61.1 90 61.5 90.4 61.5 90.9z" fill="#110f10" data-fill-palette-color="quaternary"></path><path class="" d="M54.8 57.7C54.8 57.7 54.8 57.8 54.8 57.7l-5.7-2 0.1 0L54.8 57.7z" fill="#110f10" data-fill-palette-color="quaternary"></path><path class="" d="M51.2 71.3c0.5 0.4 0.6 1.1 0.3 1.6 0 0 0 0 0 0.1 0 0-0.1 0.1-0.1 0.1l-9.2 10.3c-0.4 0.5-1.2 0.6-1.8 0.2l-3-2.1c-0.5-0.4-0.6-1.2-0.2-1.8l5.5-7 0.1-0.2" fill="#110f10" data-fill-palette-color="quaternary"></path><path class="" d="M42.9 72.5l-0.1 0.2c0 0 0 0 0-0.2l2.6-14.7 8.9 3.2-2.5 11.4c0 0.1-0.1 0.3-0.2 0.4" fill="#110f10" data-fill-palette-color="quaternary"></path><path class="" d="M39.1 56.5c0.7 0.2 0 3-0.2 3.6l-3.8 11.2c-0.2 0.7-1 1-1.6 0.8L9 63.1c-0.7-0.2-1-1-0.8-1.6L13 48.3c0.2-0.7 1-1 1.6-0.8L39.1 56.5z" fill="#110f10" data-fill-palette-color="quaternary"></path><path class="" d="M33 49.2c0.2 0.1 0.4 0.3 0.3 0.6L32.5 52c-0.1 0.2-0.3 0.4-0.6 0.3l-9.3-3.4c-0.2-0.1-0.4-0.3-0.3-0.6l0.8-2.2c0.1-0.2 0.4-0.4 0.6-0.3L33 49.2z" fill="#110f10" data-fill-palette-color="quaternary"></path></g></g></g></svg></g></svg></g><g></g></svg></g></svg></g></svg></g></svg></g><defs></defs></svg><rect width="342.85155851775386" height="342.85155851775386" fill="none" stroke="none" visibility="hidden"></rect></g></svg></g></svg>